#!OML:ASF F:\VICON\USERDATA\INSTALL\rory3\rory3.ASF
:FULLY-SPECIFIED
:DEGREES
191
root 0.257077 17.9882 2.55556 -5.29966 0.929967 -6.31206
lowerback 18.807 1.05964 3.34663
upperback 1.25675 2.46844 3.69848
thorax -9.22665 1.12587 1.47075
lowerneck -7.0465 0.256677 -1.2735
upperneck 27.798 0.197675 1.60836
head 9.95409 0.1558 0.809324
rclavicle -2.98177e-016 -3.97569e-016
rhumerus -37.1592 -12.6799 -69.9758
rradius 43.331
rwrist -9.36912
rhand -13.3152 5.76531
rfingers 7.12502
rthumb 12.7894 -23.8229
lclavicle -2.98177e-016 -3.97569e-016
lhumerus -42.2597 17.8596 66.7325
lradius 106.073
lwrist -13.6161
lhand -34.1857 58.2256
lfingers 7.12502
lthumb -7.35879 -271.922
rfemur -5.15475 2.64426 33.4799
rtibia 29.9732
rfoot -13.8069 -13.1197
rtoes 21.0003
lfemur -23.6685 -3.80464 -12.997
ltibia 62.3502
lfoot -5.56668 0.836225
ltoes -14.3929
192
root 0.271576 17.9983 2.75392 -5.12785 0.429392 -6.35552
lowerback 18.705 1.08536 3.4557
upperback 1.24521 2.52142 3.72282
thorax -9.17971 1.14751 1.42308
lowerneck -6.68108 0.161094 -1.79545
upperneck 27.5108 0.0950238 1.80299
head 9.78004 0.0740572 0.953131
rclavicle 2.01766e-014 1.59028e-014
rhumerus -36.7443 -11.935 -70.5662
rradius 43.8406
rwrist -10.3778
rhand -13.8121 6.25258
rfingers 7.12502
rthumb 12.3102 -23.3651
lclavicle 2.01766e-014 1.59028e-014
lhumerus -41.6588 18.4037 67.6418
lradius 103.563
lwrist -15.4781
lhand -35.5431 57.0215
lfingers 7.12502
lthumb -8.66888 -273.177
rfemur -4.697 2.99392 33.5673
rtibia 29.7163
rfoot -14.087 -13.1463
rtoes 19.239
lfemur -24.375 -3.80842 -12.8735
ltibia 60.7368
lfoot -6.65189 1.44134
ltoes -15.4234
193
root 0.289045 17.9796 2.94391 -4.97523 0.100188 -6.512
lowerback 18.7042 1.05579 3.75129
upperback 1.17301 2.55076 3.75065
thorax -9.24792 1.14832 1.27857
lowerneck -6.23239 0.0778542 -1.87964
upperneck 27.1389 0.0382969 1.59372
head 9.56194 0.015382 0.884246
rclavicle 2.08724e-014 2.10712e-014
rhumerus -36.3779 -11.5837 -70.8667
rradius 44.2232
rwrist -10.3331
rhand -13.2025 6.55458
rfingers 7.12502
rthumb 12.8979 -23.0269
lclavicle 2.08724e-014 2.10712e-014
lhumerus -41.3394 18.524 68.4731
lradius 101.172
lwrist -16.7976
lhand -37.0696 56.117
lfingers 7.12502
lthumb -10.1417 -274.147
rfemur -3.71212 3.01462 33.7878
rtibia 29.3766
rfoot -15.2221 -12.8267
rtoes 19.1713
lfemur -25.1526 -3.92873 -12.5982
ltibia 59.0892
lfoot -7.59112 1.93957
ltoes -14.9517
194
root 0.307132 17.9529 3.14247 -4.91282 -0.233574 -6.54809
lowerback 18.747 0.977455 3.91415
upperback 1.05647 2.48988 3.73954
thorax -9.39333 1.10909 1.19007
lowerneck -5.63053 0.201232 -1.96527
upperneck 26.813 0.226796 1.5421
head 9.32753 0.0873983 0.894599
rclavicle 8.84592e-015 5.56597e-015
rhumerus -36.2252 -11.1643 -71.191
rradius 44.6092
rwrist -9.85582
rhand -12.5819 6.75524
rfingers 7.12502
rthumb 13.4962 -22.7874
lclavicle 8.84592e-015 5.56597e-015
lhumerus -41.6146 18.4703 69.0159
lradius 98.9375
lwrist -17.9249
lhand -38.6671 55.2183
lfingers 7.12502
lthumb -11.6826 -275.127
rfemur -2.70057 3.20746 33.8922
rtibia 29.0704
rfoot -16.0439 -12.8673
rtoes 20.6641
lfemur -25.731 -4.02155 -12.4499
ltibia 57.2987
lfoot -8.10211 2.28105
ltoes -15.2508
195
root 0.32106 17.941 3.33746 -4.7016 -0.526539 -6.5842
lowerback 18.6413 0.913786 4.02631
upperback 0.992711 2.42471 3.72893
thorax -9.40016 1.07239 1.13387
lowerneck -6.2136 0.551435 -1.34101
upperneck 27.1489 0.764998 1.01123
head 9.55337 0.343353 0.660169
rclavicle -1.2921e-015 -1.59028e-015
rhumerus -35.9022 -10.7947 -71.5892
rradius 45.3778
rwrist -8.98192
rhand -12.0685 4.7647
rfingers 7.12502
rthumb 13.991 -24.7445
lclavicle -1.2921e-015 -1.59028e-015
lhumerus -41.7539 18.4449 69.5318
lradius 96.6157
lwrist -19.3755
lhand -39.7853 53.8444
lfingers 7.12502
lthumb -12.7608 -276.566
rfemur -1.92706 3.46145 34.0043
rtibia 28.6737
rfoot -16.2266 -13.1784
rtoes 19.8746
lfemur -26.408 -4.11524 -12.2607
ltibia 55.3585
lfoot -8.47666 2.53892
ltoes -15.978
196
root 0.33215 17.9319 3.52508 -4.35346 -0.765851 -6.5433
lowerback 18.3337 0.883311 4.03833
upperback 1.02284 2.36294 3.7206
thorax -9.19469 1.04569 1.13793
lowerneck -6.84138 0.749608 -0.917942
upperneck 27.2471 1.09171 0.581674
head 9.71034 0.490275 0.474587
rclavicle 6.11263e-015 -7.15625e-015
rhumerus -35.28 -10.3072 -72.1746
rradius 45.6357
rwrist -9.93961
rhand -12.5772 5.48421
rfingers 7.12502
rthumb 13.5007 -24.0582
lclavicle 6.11263e-015 -7.15625e-015
lhumerus -40.3444 19.7631 70.1889
lradius 92.9034
lwrist -21.6543
lhand -40.492 52.1011
lfingers 7.12502
lthumb -13.442 -278.353
rfemur -1.34626 3.64081 34.0002
rtibia 28.2983
rfoot -16.4942 -13.2903
rtoes 18.8916
lfemur -27.21 -4.20352 -12.11
ltibia 53.2484
lfoot -8.93629 2.68191
ltoes -16.5288
197
root 0.345704 17.9155 3.71484 -4.14538 -1.04936 -6.63546
lowerback 18.2392 0.841175 4.22876
upperback 1.01601 2.33959 3.71793
thorax -9.14216 1.02706 1.0346
lowerneck -6.82864 0.819012 -0.896637
upperneck 27.0906 1.2037 0.501831
head 9.65136 0.535392 0.453236
rclavicle -6.70898e-015 -4.29375e-014
rhumerus -34.7604 -9.96452 -72.6266
rradius 46.1565
rwrist -9.69493
rhand -12.5621 5.48589
rfingers 7.12502
rthumb 13.5153 -24.0555
lclavicle -6.70898e-015 -4.29375e-014
lhumerus -40.3682 19.8216 70.6354
lradius 90.5753
lwrist -22.8703
lhand -41.338 52.2116
lfingers 7.12502
lthumb -14.2573 -278.298
rfemur -0.594085 3.82911 34.1405
rtibia 27.8849
rfoot -16.8962 -13.381
rtoes 17.4908
lfemur -27.741 -4.3272 -11.8037
ltibia 51.0068
lfoot -9.26552 2.78762
ltoes -16.95
198
root 0.35609 17.8933 3.89754 -4.01509 -1.37786 -6.77783
lowerback 18.411 0.84263 4.42598
upperback 0.989777 2.39678 3.73134
thorax -9.25929 1.04362 0.920943
lowerneck -6.50076 0.771413 -1.17924
upperneck 26.8322 1.15315 0.593436
head 9.49411 0.494183 0.524714
rclavicle -7.30534e-015 -1.63003e-014
rhumerus -34.2498 -9.65877 -73.0385
rradius 46.5196
rwrist -9.33803
rhand -12.4188 4.77532
rfingers 7.12502
rthumb 13.6534 -24.7569
lclavicle -7.30534e-015 -1.63003e-014
lhumerus -40.9489 18.6662 71.1616
lradius 88.7011
lwrist -22.8056
lhand -42.1831 52.2595
lfingers 7.12502
lthumb -15.0715 -278.309
rfemur 0.242235 4.28573 34.4145
rtibia 27.3987
rfoot -17.217 -13.6654
rtoes 16.3277
lfemur -28.0787 -4.43548 -11.4191
ltibia 48.6252
lfoot -9.33694 2.973
ltoes -17.5034
199
root 0.370463 17.8835 4.10647 -3.86178 -1.66533 -6.8528
lowerback 18.195 0.809186 4.58557
upperback 0.968447 2.37169 3.74221
thorax -9.1569 1.02684 0.852095
lowerneck -6.14704 0.732778 -1.44149
upperneck 26.8312 1.13865 0.575147
head 9.42548 0.459056 0.559718
rclavicle 9.39258e-015 2.54444e-014
rhumerus -33.801 -9.34264 -73.4382
rradius 46.7591
rwrist -8.90141
rhand -11.8913 4.16971
rfingers 7.12502
rthumb 14.1617 -25.3276
lclavicle 9.39258e-015 2.54444e-014
lhumerus -40.1191 19.1145 71.7868
lradius 85.3459
lwrist -23.2196
lhand -42.7113 53.2184
lfingers 7.12502
lthumb -15.5803 -277.389
rfemur 1.17866 4.3976 34.5007
rtibia 26.8339
rfoot -17.5375 -13.6611
rtoes 15.2141
lfemur -28.2447 -4.69867 -11.1196
ltibia 46.0583
lfoot -9.22633 3.28901
ltoes -16.2167
